<svg xmlns="http://www.w3.org/2000/svg" viewBox="0 0 12.75 17">
    <defs>
        <style>
            .cls-1{fill:#fff}
        </style>
    </defs>
    <path id="file-alt" d="M7.438 4.516V0H.8a.8.8 0 0 0-.8.8v15.4a.8.8 0 0 0 .8.8h11.153a.8.8 0 0 0 .8-.8V5.313H8.234a.8.8 0 0 1-.796-.797zm2.125 7.836a.4.4 0 0 1-.4.4H3.586a.4.4 0 0 1-.4-.4v-.266a.4.4 0 0 1 .4-.4h5.578a.4.4 0 0 1 .4.4zm0-2.125a.4.4 0 0 1-.4.4H3.586a.4.4 0 0 1-.4-.4v-.266a.4.4 0 0 1 .4-.4h5.578a.4.4 0 0 1 .4.4zm0-2.391V8.1a.4.4 0 0 1-.4.4H3.586a.4.4 0 0 1-.4-.4v-.264a.4.4 0 0 1 .4-.4h5.578a.4.4 0 0 1 .398.4zm3.187-3.789v.2H8.5V0h.2a.8.8 0 0 1 .564.232l3.251 3.254a.794.794 0 0 1 .235.561z" class="cls-1"/>
</svg>
