<svg xmlns="http://www.w3.org/2000/svg" viewBox="0 0 22.666 17">
    <defs>
        <style>
            .cls-1{fill:#943879}
        </style>
    </defs>
    <path id="concierge-bell" d="M12.75 66.946v-.821h.708a.708.708 0 0 0 .708-.708v-.708a.708.708 0 0 0-.708-.709h-4.25a.708.708 0 0 0-.708.708v.708a.708.708 0 0 0 .708.708h.708v.821a9.911 9.911 0 0 0-8.5 9.8h19.833a9.911 9.911 0 0 0-8.499-9.799zm9.208 11.221H.708a.708.708 0 0 0-.708.708v1.417A.708.708 0 0 0 .708 81h21.25a.708.708 0 0 0 .708-.708v-1.417a.708.708 0 0 0-.708-.708z" class="cls-1" transform="translate(0 -64)"/>
</svg>
