<svg xmlns="http://www.w3.org/2000/svg" width="191.925" height="192.054" viewBox="0 0 191.925 192.054">
  <defs>
    <style>
      .cls-1 {
        fill: #163558;
        stroke: #163558;
      }
    </style>
  </defs>
  <g id="eatIn" transform="translate(0.566 0.5)">
    <path id="Path_5" data-name="Path 5" class="cls-1" d="M144.344,281.106c-9.272,0-18.543.059-27.874,0a19.387,19.387,0,0,1-19.13-17.487c-.293-2.758,0-5.281,2.523-7.042.293-.176.7-.587.7-.88.059-4.4.176-8.8.059-13.2-.059-1.526-.88-3.051-.939-4.577-.117-3.11.352-6.162-2-8.978-1.526-1.819.352-3.7,1.232-5.516a36.97,36.97,0,0,1,10.5-12.792c7.1-5.457,15.316-7.981,24.059-9.213,11.619-1.643,23.179-1.467,34.387,2.641a39.761,39.761,0,0,1,22.886,20.6c1.174,2.406,1.408,4.577-.763,6.69-.528.469-.587,1.526-.7,2.289-.469,3.227-1,6.514-1.232,9.8a51.181,51.181,0,0,0,.352,5.985c.117,3.169-.763,6.514,2.465,9.037.822.646.939,2.523.939,3.814a19.3,19.3,0,0,1-18.661,18.837C163.474,281.224,153.909,281.106,144.344,281.106Zm42.779-53.459c-3.638-7.042-8.039-12.616-14.377-15.844-6.631-3.4-13.555-6.22-21.243-6.455-14.025-.411-27.932-.293-39.551,9.272-4.166,3.4-7.218,7.746-10.034,13.027Zm-42.485,32.8h0c-13.2,0-26.407.059-39.61-.059-2.641,0-3.169,1-2.875,3.345.939,6.748,6.983,12.44,13.849,12.5q28.431.176,56.862,0c6.69-.059,12.558-5.4,13.731-11.912.645-3.345.293-3.814-3.051-3.814Q164.179,260.421,144.638,260.45Zm38.73-4.988a50.427,50.427,0,0,1,.059-5.223c.293-2.641-.587-3.521-3.345-3.521-22.416.117-44.774.059-67.19.059-8.157,0-8.157,0-7.1,8.274,0,.059.117.176.293.352C131.611,255.463,157.313,255.463,183.367,255.463Zm-29.634-22.475c3.462,3.638,4.577,8.743,10.211,8.626,3.11-.059,7.159-4.4,8.333-8.8H156.433C155.9,232.87,155.318,232.929,153.733,232.988Zm-37.967-.059c3.462,3.756,4.577,9.037,10.445,8.743,2.993-.176,7.1-4.812,7.981-8.743Zm19.071,8.685h19.13c-1-1.526-1.76-2.758-2.582-3.932a24.762,24.762,0,0,0-2.23-2.7,6.022,6.022,0,0,0-9.272,0C138.183,236.919,136.716,239.149,134.838,241.614Zm-18.367.235c-2.406-2.993-4.049-5.575-6.22-7.511-1.115-1-3.169-1-4.812-1.408a34.776,34.776,0,0,0-.939,4.284,8.345,8.345,0,0,0,.587,3.11c.235.587.939,1.408,1.467,1.467C109.547,241.907,112.539,241.848,116.471,241.848Zm56.393-1.056c.293.352.528.7.822,1.056a46.539,46.539,0,0,1,6.4.059c3.11.469,4.225-1,4.4-3.756a15.341,15.341,0,0,0,.117-2.347c-.059-2.993-1.526-4.166-3.99-2.465C177.675,235.394,175.387,238.269,172.863,240.792Z" transform="translate(-49.198 -90.099)"/>
    <path id="Path_6" data-name="Path 6" class="cls-1" d="M75.279,60.577h26.23c4.342,0,4.46.059,4.871,4.225.645,6.338,3.521,11.443,8.039,15.844,1,.939,1.408,2.523,2.054,3.814a20.362,20.362,0,0,1-4.284,1.7,41.112,41.112,0,0,1-6.044.059c-.646,9.624-1.291,18.954-1.936,28.284H99.4c.587-9.448,1.232-18.661,1.819-28.05H30.564c.176,3.286.293,6.4.528,9.448.939,15.2,1.819,30.4,2.817,45.6.939,13.849,2,27.639,2.934,41.488.117,1.819,1.056,2,2.523,1.936,5.164-.059,10.328,0,15.727,0v4.812H35.141c-2.171,0-2.7-1.526-2.817-3.345-.469-7.335-1-14.612-1.467-21.947-1-15.961-1.936-31.981-2.934-47.942-.587-9.272-1.408-18.485-2.113-27.756-.059-.763-.176-1.526-.352-2.582-2.465,0-4.753.117-7.1-.059-1-.117-2.582-.7-2.817-1.408a3.871,3.871,0,0,1,.939-3.227c3.814-3.638,7.042-7.629,8.274-12.851a24.576,24.576,0,0,0,.7-4.636c.059-2.523,1.232-3.462,3.638-3.4,8.509.059,17.018,0,25.526,0,.587,0,1.115-.117,1.936-.176V16.625c0-3.873.352-4.225,4.166-4.225H70.7c4.284,0,4.518.235,4.518,4.4V56.7C75.279,57.819,75.279,58.993,75.279,60.577Zm25.292,4.812h-2.7c-21.184,0-42.426.059-63.61-.059-2.993,0-4.049.7-4.694,3.756-.763,3.4-2.758,6.572-4.284,9.858-.352.7-.88,1.35-1.291,2.054h83.034C104.913,75.952,102.859,70.964,100.571,65.389Zm-30.4-5.047V22.787c0-5.633,0-5.457-5.516-5.633-2.7-.059-3.227.822-3.227,3.345.176,10.8.117,21.595.117,32.451C61.548,60.929,61.548,60.929,70.174,60.342Z" transform="translate(-15.459 -12.4)"/>
    <path id="Path_7" data-name="Path 7" class="cls-1" d="M244.082,238.237v-4.812h15.9c3.345,0,6.631-.117,9.976.059,2.054.117,2.641-.7,2.817-2.641,1.115-12.088,2.406-24.118,3.58-36.148.7-7.159,1.35-14.377,2-21.536-4.225,1.76-8.1,3.873-12.264,4.929a62.061,62.061,0,0,1-13.555,1.643c-6.924.235-13.79-.059-20.714-.176-.469,0-.939-.059-1.526-.117V174.92h2.758c8.626,0,17.194-.117,25.82-.059,4.812.059,8.92-1.878,12.734-4.577a2.38,2.38,0,0,0,.939-1.584c.059-11.149.059-22.24.059-33.624h-9.1v31.57c-1.878-.117-3.286-.176-4.988-.293V145.227H249.6v17.722h-4.871V134.84h-8.92V166.47H230.82V148.63H221.9v21.36c-4.753.822-4.871.763-4.871-3.521V138.127a66.8,66.8,0,0,0-7.687.117c-.528.059-1.291,1.7-1.291,2.582-.117,7.453-.059,14.846-.059,22.3v3.345h-4.577c-.059-.645-.235-1.408-.235-2.113,0-8.978-.059-18.015,0-26.993,0-3.58.469-4.049,4.108-4.049s7.218.117,10.856-.059c2.875-.117,3.873,1.174,3.756,3.873-.117,2.054,0,4.049,0,6.338h8.92c0-3.4.059-6.69,0-9.976-.059-2.641,1-3.756,3.638-3.638q5.721.176,11.443,0c2.7-.059,3.756,1.115,3.58,3.7-.117,2.054,0,4.108,0,6.4h9.037v-5.633c0-4.166.235-4.46,4.518-4.46,3.4,0,6.866.117,10.269-.059,2.758-.117,3.873.939,3.814,3.756-.117,9.565-.059,19.189-.059,28.754v3.99c1.291-.587,2.113-1,2.934-1.408,2.406-1.115,3.814-.411,3.873,2.289a69.839,69.839,0,0,1-.587,7.8c-2,19.834-4.049,39.61-5.985,59.444-.293,2.934-1.408,3.873-4.225,3.814C263.447,238.119,253.882,238.237,244.082,238.237Z" transform="translate(-93.013 -60.902)"/>
  </g>
</svg>
