<svg id="Togo" xmlns="http://www.w3.org/2000/svg" width="149.381" height="174.5" viewBox="0 0 149.381 174.5">
  <defs>
    <style>
      .cls-1 {
        fill: #163558;
      }
    </style>
  </defs>
  <path id="Path_8" data-name="Path 8" class="cls-1" d="M89.541,184.729H28.788a94.846,94.846,0,0,0-13.7.513c-3.664.513-6.009-1.392-5.789-5.35.953-15.609,1.979-31.146,3.078-46.755.66-8.647,1.319-17.295,2.345-25.942,1.686-13.7,3.811-27.335,5.716-40.966,1.612-11.286,3.518-22.5,4.617-33.784.44-4.544-1.026-9.234-1.319-13.851-.44-6.009.513-7.035,6.669-7.109q49.137-.33,98.274-.586c3.811,0,7.622.366,11.359.66,3.078.22,4.69,1.905,4.4,4.983-.293,3.664-1.246,7.255-1.173,10.919A163.03,163.03,0,0,0,144.8,46.369c1.979,15.39,4.4,30.706,6.3,46.1,1.832,14.29,3.591,28.654,4.837,43.018,1.173,13.338,1.686,26.749,2.492,40.086.147,2.2.513,4.617-.147,6.6a5.3,5.3,0,0,1-3.884,3.078c-21.692.22-43.384.147-65,.147A1.089,1.089,0,0,0,89.541,184.729ZM29.155,16.836c0,1.466-.073,3.078,0,4.544.22,3.078,1.1,6.229.806,9.234-.806,9.82-2.125,19.493-2.931,29.314q-2.418,29.13-4.47,58.407c-.513,7.182-.513,14.364-.806,21.545-.293,6.669-.953,13.338-1.1,20.08-.147,5.57,0,11.139.293,16.709.073,2.052,1.392,2.931,3.664,2.931,15.609.22,31.292.733,46.9.879,10.26.073,20.519-.22,30.852-.366,13.851-.22,27.7-.44,41.552-.513,2.272,0,3.518-.953,3.664-3a93.644,93.644,0,0,0,.513-12.019c-.586-9.893-2.345-19.713-2.272-29.533.147-15.683-1.246-31.146-2.418-46.755-1.319-17.148-2.638-34.3-4.1-51.445-.44-4.983-1.466-9.893,0-14.877.44-1.612.073-3.518.073-5.2C128.747,14.271,39.488,14.271,29.155,16.836Z" transform="translate(-9.281 -10.9)"/>
  <path id="Path_9" data-name="Path 9" class="cls-1" d="M50,36.874a865.486,865.486,0,0,0,89.406-.293C134.716,32.4,54.983,32.477,50,36.874Z" transform="translate(-20.159 -16.941)"/>
  <path id="Path_10" data-name="Path 10" class="cls-1" d="M50,36.874c5.057-4.4,84.789-4.47,89.406-.293A865.487,865.487,0,0,1,50,36.874Z" transform="translate(-20.159 -16.941)"/>
</svg>
