<svg xmlns="http://www.w3.org/2000/svg" viewBox="0 0 12.75 17">
    <defs>
        <style>
            .cls-1{fill:#fff}
        </style>
    </defs>
    <path id="file-alt" d="M9.562 8.234v.93a.4.4 0 0 1-.4.4H6.515l.018-1.727h2.631a.4.4 0 0 1 .398.397zm-.4 2.391H6.5l.008 1.727h2.656a.4.4 0 0 0 .4-.4v-.93a.4.4 0 0 0-.4-.397zm3.588-6.246v11.027A1.594 1.594 0 0 1 11.156 17H1.594A1.594 1.594 0 0 1 0 15.406V1.594A1.594 1.594 0 0 1 1.594 0h6.777A1.594 1.594 0 0 1 9.5.468l2.786 2.786a1.588 1.588 0 0 1 .464 1.125zM8.5 1.723V4.25h2.527L8.5 1.723zm2.656 13.683V5.844H7.7a.8.8 0 0 1-.8-.8v-3.45H1.594v13.812z" class="cls-1"/>
</svg>
