<svg xmlns="http://www.w3.org/2000/svg" viewBox="0 0 14.537 19.063">
    <defs>
        <style>
            .cls-1{fill:none;stroke:#fafafa}.cls-2{fill:#fff}
        </style>
    </defs>
    <g id="Group_2452" data-name="Group 2452" transform="translate(-738.349 -751.573)">
        <path id="fire" d="M7.615.841a.848.848 0 0 0-1.557-.46C1.692 6.763 7.9 7.05 7.9 10.152a2.256 2.256 0 1 1-4.512-.034V7.1a.846.846 0 0 0-1.461-.582A7.051 7.051 0 0 0 0 11.28a6.769 6.769 0 1 0 13.537 0c0-6-5.922-6.8-5.922-10.44z" class="cls-1" transform="translate(738.849 752.088)"/>
        <path id="fire-2" d="M7.615.841a.848.848 0 0 0-1.557-.46C1.692 6.763 7.9 7.05 7.9 10.152a2.256 2.256 0 1 1-4.512-.034V7.1a.846.846 0 0 0-1.461-.582A7.051 7.051 0 0 0 0 11.28a6.776 6.776 0 0 0 6.769 6.769 4.648 4.648 0 0 0 .649-.167s.2-13.529.2-17.042z" class="cls-2" data-name="fire" transform="translate(738.849 752.088)"/>
    </g>
</svg>
