<svg xmlns="http://www.w3.org/2000/svg" viewBox="0 0 43.84 53.449">
    <defs>
        <style>
            .cls-1{fill:#0b2a5d}
        </style>
    </defs>
    <g id="Icon_Course" data-name="Icon Course" transform="translate(0 -.226)">
        <path id="Fill_1" d="M37.6 27.941c-.491 0-1.017-.019-1.439-.034h-.053c-.4-.014-.783-.027-1.119-.027H6.069c-.351 0-.723.01-1.074.021a38.38 38.38 0 0 1-1.118.022c-1.448 0-2.87-.156-3.461-1.292a10.679 10.679 0 0 1-.069-5.638 2.748 2.748 0 0 1 2.832-1.34H3.876C5.947 12.465 10.562 8.17 17.592 6.895a4.32 4.32 0 0 1-1.016-2.834A3.953 3.953 0 0 1 20.052.038a4.955 4.955 0 0 1 .6-.038 3.916 3.916 0 0 1 3.9 4 4.4 4.4 0 0 1-.8 2.713 14.619 14.619 0 0 1 2.85.777l.439.175a17.481 17.481 0 0 1 6.382 4.687 18.933 18.933 0 0 1 3.931 7.32c.118 0 .235 0 .348-.007h.1c.206-.006.377-.01.543-.01a2.688 2.688 0 0 1 2.406 1.012 4.629 4.629 0 0 1 .415 2.571v.425c0 .2 0 .4.007.582.023 1.293.046 2.628-1.181 3.317a5.02 5.02 0 0 1-2.392.379zM6.069 26.252h28.925c.365 0 .784.014 1.19.028h.068c.4.014.9.032 1.354.032a3.944 3.944 0 0 0 1.594-.175c.344-.194.371-.719.35-1.872 0-.193-.007-.4-.007-.609V23.2a4.854 4.854 0 0 0-.135-1.621c-.131-.193-.338-.3-1.057-.3-.124 0-.248 0-.364.006h-.135c-.181.005-.394.011-.608.011s-.394-.005-.572-.016l-.6-.038-.14-.584c-1.709-7.127-7.889-12.5-14.375-12.5-.172 0-.346 0-.518.011l-.1.005v-.032l-.722.056C12.21 8.821 7.327 12.9 5.286 20.676l-.156.6-.616.012H3.178c-1.089 0-1.238.151-1.355.4a10.414 10.414 0 0 0 .04 4.2c.1.188.527.411 2.013.411.358 0 .736-.011 1.069-.02h.006c.332-.015.743-.027 1.118-.027zM20.656 1.626a3.365 3.365 0 0 0-.4.026 2.321 2.321 0 0 0-2.046 2.425 2.369 2.369 0 0 0 2.062 2.5l.779.033a1.8 1.8 0 0 0 1.479-.872 3.067 3.067 0 0 0 .4-1.694 2.288 2.288 0 0 0-2.274-2.418z" class="cls-1" data-name="Fill 1" transform="translate(2.656 .226)"/>
        <path id="Fill_3" d="M6.282 25.886h-.238c-2.75-.1-4.192-1.969-5.35-3.467l-.4-.516 1.276-1.012c.139.174.277.353.417.534 1.1 1.419 2.134 2.76 4.122 2.836 2.11.084 3.171-1.347 4.3-2.858 3.2-4.3 6.283-8.5 8.882-12.054q.145-.2.285-.4a6.746 6.746 0 0 1 2.266-2.275 30.534 30.534 0 0 1 5.207-1.946 30.184 30.184 0 0 0 5.084-1.893 5.011 5.011 0 0 0 1.49-1.175c-5.746-.064-15.984-.01-18.141 0-1.114 1.486-5.787 7.726-8.2 11.072l-.664.922-.661-.925C4.129 10.172 2.257 7.417 0 4.081l1.351-.911c1.98 2.927 3.662 5.4 5.273 7.688C9.523 6.876 14.362.43 14.415.36l.242-.323h.4c.137 0 13.836-.085 19.8.012l.929.015-.136.917c-.265 1.789-2.025 2.9-2.769 3.29a31.345 31.345 0 0 1-5.367 2.01A28.963 28.963 0 0 0 22.6 8.108a5.373 5.373 0 0 0-1.7 1.782l-.3.413c-2.6 3.553-5.691 7.765-8.887 12.061-1.172 1.576-2.62 3.522-5.43 3.522" class="cls-1" data-name="Fill 3" transform="translate(0 27.789)"/>
        <path id="Fill_5" d="M10.245.446c.362.655-.068 1.139-.635 1.49-.514.318-1.126.464-1.672.736a12.62 12.62 0 0 0-2.947 1.99 8.657 8.657 0 0 0-1.075 1.349 17.5 17.5 0 0 0-.924 1.576 22.994 22.994 0 0 0-.785 1.668c-.193.581-.4 1.743-1.482 1.462-1.317-.341-.467-1.77-.318-2.206.253-.626.542-1.23.852-1.826a19.441 19.441 0 0 1 1.028-1.753 10.556 10.556 0 0 1 1.335-1.663A14.731 14.731 0 0 1 8.928.092c.248-.071.963-.285 1.317.355" class="cls-1" data-name="Fill 5" transform="translate(9.451 10.143)"/>
    </g>
</svg>
