<svg xmlns="http://www.w3.org/2000/svg" viewBox="0 0 17 17">
    <defs>
        <style>
            .cls-1{fill:#306ab2}
        </style>
    </defs>
    <path id="book-reader" d="M11.687 3.187A3.187 3.187 0 1 0 8.5 6.375a3.187 3.187 0 0 0 3.187-3.188zM7.756 8.005C5.786 6.8 2.6 6.468.989 6.377a.919.919 0 0 0-.989.9v7.4a.913.913 0 0 0 .88.9 17.861 17.861 0 0 1 6.41 1.376.462.462 0 0 0 .68-.394V8.386a.442.442 0 0 0-.213-.381zm8.255-1.629c-1.605.091-4.8.423-6.766 1.629a.45.45 0 0 0-.213.386v8.161a.464.464 0 0 0 .682.4 17.868 17.868 0 0 1 6.407-1.375.914.914 0 0 0 .88-.9v-7.4a.919.919 0 0 0-.99-.9z" class="cls-1"/>
</svg>
