<svg xmlns="http://www.w3.org/2000/svg" viewBox="0 0 12.75 17">
    <defs>
        <style>
            .cls-1{fill:#fff}
        </style>
    </defs>
    <path id="clipboard-check" d="M11.156 2.125H8.5a2.125 2.125 0 1 0-4.25 0H1.594A1.594 1.594 0 0 0 0 3.719v11.687A1.594 1.594 0 0 0 1.594 17h9.562a1.594 1.594 0 0 0 1.594-1.594V3.719a1.594 1.594 0 0 0-1.594-1.594zm-4.781-.8a.8.8 0 1 1-.8.8.795.795 0 0 1 .8-.797zm4.024 7.7l-4.748 4.708a.4.4 0 0 1-.564 0l-2.743-2.769a.4.4 0 0 1 0-.564l.943-.936a.4.4 0 0 1 .564 0l1.527 1.541L8.9 7.514a.4.4 0 0 1 .564 0l.936.943a.4.4 0 0 1 0 .568z" class="cls-1"/>
</svg>
