<svg xmlns="http://www.w3.org/2000/svg" viewBox="0 0 20.069 22.841">
    <defs>
        <style>
            .cls-1{fill:#d73f7c;stroke:#d73f7c;stroke-width:.3px}
        </style>
    </defs>
    <path id="check-in-marker" d="M32.375 22a.539.539 0 0 1-.539.539c-1.439 0-1.918-1-2.3-1.809-.052-.11-1.044-2.068-1.044-2.068-2.1-4.133-4.347-8.73-4.347-10.97a7.694 7.694 0 0 1 15.282-1.253.539.539 0 1 1-1.064.175 6.616 6.616 0 0 0-13.143 1.08c0 2.168 2.751 7.576 4.229 10.481l1.057 2.093c.4.829.6 1.2 1.329 1.2a.539.539 0 0 1 .54.532zm-.539-17.086a2.779 2.779 0 1 1-2.779 2.779 2.782 2.782 0 0 1 2.779-2.779zm0 1.078a1.7 1.7 0 1 0 1.7 1.7 1.7 1.7 0 0 0-1.7-1.7zm11.657 5.356l-5.635 10.01-.013.023a2.484 2.484 0 0 1-2.091 1.16h-.061a2.238 2.238 0 0 1-1.935-1.171l-3-5.334a2.347 2.347 0 0 1 4.1-2.3l.956 1.7L39.4 9.052a2.347 2.347 0 0 1 4.095 2.3zm-1.427-2.255a1.269 1.269 0 0 0-1.728.487l-4.065 7.22a.539.539 0 0 1-.939 0l-1.426-2.533a1.269 1.269 0 1 0-2.216 1.24l3 5.335a1.172 1.172 0 0 0 1.023.621 1.4 1.4 0 0 0 1.206-.645l5.628-10a1.271 1.271 0 0 0-.483-1.725z" class="cls-1" transform="translate(-23.994 .151)"/>
</svg>
