<svg xmlns="http://www.w3.org/2000/svg" width="81" height="84.429" viewBox="0 0 81 84.429">
    <defs>
        <style>
            .cls-1{fill:#707070}.cls-2{fill:#b7b7b7;opacity:.4}
        </style>
    </defs>
    <g id="fingerprint-currently-scanning" transform="translate(-40 156.451)">
        <g id="Group_3269" data-name="Group 3269" transform="translate(0 -170)">
            <g id="Group_3267" data-name="Group 3267">
                <path id="Path_674" d="M54.7 35.676c.531.115 1.023.108 2.533-1.047a13.822 13.822 0 0 0 2.58-2.581l.4-.529c3.432-4.539 11.466-15.165 23.07-14.587 9.569.694 16.353 7.88 19.617 20.782.111.438.178.707.254.914.5 2.11 1.335 4.738 2.539 5.6a1.684 1.684 0 0 0 2.054-2.666 15.029 15.029 0 0 1-1.333-3.83 1.708 1.708 0 0 0-.091-.278c-.031-.109-.091-.347-.146-.563a41.749 41.749 0 0 0-5.224-12.586c-4.3-6.6-10.171-10.206-17.444-10.727h-.036C70.071 12.9 61.272 24.532 57.517 29.5l-.395.521a10.134 10.134 0 0 1-2.662 2.439 1.7 1.7 0 0 0-1.047 1.94 1.686 1.686 0 0 0 1.287 1.276z" class="cls-1" data-name="Path 674"/>
                <path id="Path_675" d="M96.973 87.335c1.278-3.2 1.309-7.5.084-10.066a9.253 9.253 0 0 0-5.889-4.789c-4.051-1.242-8.962 1.011-13.462 6.173a76.994 76.994 0 0 1-13.188 10.933 46.307 46.307 0 0 1-10.118 4.39 1.7 1.7 0 0 0 .891 3.274 49.136 49.136 0 0 0 10.985-4.765A78.923 78.923 0 0 0 80.249 80.9c2.732-3.133 6.773-6.138 9.927-5.171A5.884 5.884 0 0 1 94 78.734a8.047 8.047 0 0 1-.174 6.34c-1.477 3.7-5.643 8.059-11.856 12.472h5.615c4.06-3.299 7.778-6.179 9.388-10.211z" class="cls-1" data-name="Path 675" transform="translate(0 -39.697)"/>
                <path id="Path_676" d="M71.617 51.47c-.77.847-1.46 1.758-2.2 2.627a34.7 34.7 0 0 1-3.15 3.207 18.369 18.369 0 0 1-3.414 2.546c-1.429.82-2.886 1.65-4.367 2.372a9.448 9.448 0 0 1-1.52.582 1.7 1.7 0 0 0 .9 3.272 23.967 23.967 0 0 0 4.869-2.3 33.363 33.363 0 0 0 3.848-2.353 37.04 37.04 0 0 0 6.278-6.206 36.407 36.407 0 0 1 3.847-4.025c.254-.229.513-.451.774-.67.133-.113.267-.222.4-.332l.366-.291a24.914 24.914 0 0 1 3.76-2.389 15.31 15.31 0 0 1 4.022-1.41 7.367 7.367 0 0 1 .993-.156 1.73 1.73 0 0 0 1.7-1.7 1.7 1.7 0 0 0-1.7-1.7c-6.128.642-11.368 4.475-15.406 8.926z" class="cls-1" data-name="Path 676" transform="translate(0 -20)"/>
                <path id="Path_677" d="M132.288 107.371a1.693 1.693 0 1 0-2.754-1.969c-5.359 7.524-13.032 12.944-19.53 16.539h6.558a58.174 58.174 0 0 0 15.726-14.57z" class="cls-1" data-name="Path 677" transform="translate(-44 -64)"/>
                <path id="Path_678" d="M238.355 150.205a6.2 6.2 0 0 1-2.3-4.067c-.372-2.1-3.807-1.206-3.436.879a8.741 8.741 0 0 0 2.684 4.924h6.288a13.884 13.884 0 0 1-3.236-1.736z" class="cls-1" data-name="Path 678" transform="translate(-135 -94)"/>
            </g>
            <path id="Rectangle_1760" d="M0 0h66.9v1.11H0z" class="cls-1" data-name="Rectangle 1760" transform="translate(47 57.823)"/>
            <path id="Rectangle_1762" d="M0 0h6v2.2H0z" class="cls-1" data-name="Rectangle 1762" transform="translate(40 57.249)"/>
            <g id="Group_3268" data-name="Group 3268">
                <path id="Path_679" d="M95.654 177.25h-5.839c-.548.371-1.106.742-1.682 1.112-4.05 2.607-14.245 9.008-21.445 12.1a1.713 1.713 0 0 0 .669 3.286 1.684 1.684 0 0 0 .669-.138c7.435-3.2 17.823-9.713 21.944-12.366a82.437 82.437 0 0 0 5.684-3.994z" class="cls-2" data-name="Path 679" transform="translate(-9 -118.301)"/>
                <path id="Path_680" d="M59.354 184.727a83.361 83.361 0 0 0 15.666-7.476h-6.888a77.424 77.424 0 0 1-9.88 4.277c-.075.025-.12.042-.137.049a1.693 1.693 0 0 0 1.179 3.173z" class="cls-2" data-name="Path 680" transform="translate(-3.52 -118.302)"/>
                <path id="Path_681" d="M123.585 218.383c-2.351-.784-5.226-2.83-8.007-4.81-4.027-2.868-7.5-5.344-10.338-4.856-2.129.368-5.849 2.743-11.721 6.612-4.233 2.791-9.032 5.952-11.118 6.514a1.7 1.7 0 1 0 .882 3.274c2.615-.7 7.224-3.74 12.1-6.955 3.942-2.6 8.847-5.829 10.431-6.1 1.44-.245 4.964 2.261 7.8 4.277 2.984 2.125 6.07 4.321 8.9 5.265a1.7 1.7 0 1 0 1.072-3.217z" class="cls-2" data-name="Path 681" transform="translate(-20 -140)"/>
                <path id="Path_682" d="M137.73 258.632a40.937 40.937 0 0 1-5.74-3.2c-4.541-2.807-7.426-4.51-9.5-4.151-2.1.362-6.5 3.357-13.9 8.756-.905.661-1.687 1.231-2.228 1.615a1.7 1.7 0 1 0 1.957 2.771c.565-.4 1.356-.976 2.272-1.646 2.943-2.149 10.761-7.857 12.456-8.15 1.058-.072 4.875 2.282 7.155 3.69a41.107 41.107 0 0 0 6.369 3.5 1.7 1.7 0 0 0 1.153-3.19z" class="cls-2" data-name="Path 682" transform="translate(-38 -172)"/>
                <path id="Path_683" d="M152.319 298.992c-.955-.621-1.833-1.245-2.683-1.848-2.788-1.984-5.2-3.7-7.839-3.241-2.975.512-7.71 5.258-8.63 6.2a1.7 1.7 0 0 0 2.443 2.356c2.276-2.344 5.51-5.007 6.767-5.222 1.24-.212 3.117 1.118 5.286 2.66.837.594 1.784 1.269 2.8 1.928a1.7 1.7 0 1 0 1.858-2.836z" class="cls-2" data-name="Path 683" transform="translate(-58 -205)"/>
                <path id="Path_684" d="M254.122 177.25h-6.4a18.4 18.4 0 0 0 4.022 2.243 1.739 1.739 0 0 0 2.319-.606 1.864 1.864 0 0 0 .059-1.637z" class="cls-2" data-name="Path 684" transform="translate(-146 -118.301)"/>
                <path id="Path_685" d="M219.285 185.4a15.831 15.831 0 0 1-3.6-1.683 13.522 13.522 0 0 1-5.836-6.258c-.03-.074-.068-.144-.1-.213h-3.1a1.357 1.357 0 0 0-.076 1.113 18.667 18.667 0 0 0 11.816 10.3c2.095.653 2.987-2.613.896-3.259z" class="cls-2" data-name="Path 685" transform="translate(-117 -118.301)"/>
            </g>
            <path id="Rectangle_1763" d="M0 0h6v2.2H0z" class="cls-1" data-name="Rectangle 1763" transform="translate(115 57.249)"/>
        </g>
    </g>
</svg>
